<svg xmlns="http://www.w3.org/2000/svg" viewBox="0 0 177.6 177.6"><defs><style>.a{fill:#009949;}.b{fill:#fff;}</style></defs><title>icons</title><rect class="a" width="177.6" height="177.6"/><path class="b" d="M87.76,138.54a34.14,34.14,0,0,0-11,1.57c-4.55,1.24-12.42,3.38-20,2.75-4.13-.34-10.85-.91-15.7-6.28a18.63,18.63,0,0,1-4.32-16.1c1.33-5.92,5.66-9.42,11-13.74,4.93-4,5.6-3,9.43-6.28,7.33-6.35,5.94-11,11.77-16.09a24.37,24.37,0,0,1,18.84-5.5c9,1.31,14.81,8.2,18.85,13,5.2,6.13,4,8,9,12.17,4.82,4.06,7.45,3.62,13.34,8.63,3.88,3.3,6.38,5.42,7.46,9,1.79,6-1.3,12.64-5.1,16.49-6.15,6.24-16.12,7.12-22.77,5.49-3.63-.88-6.8-2.65-14.68-4.28A34.72,34.72,0,0,0,87.76,138.54Z"/><ellipse class="b" cx="44.55" cy="70.87" rx="13.07" ry="18.85"/><ellipse class="b" cx="133.87" cy="80.37" rx="20.79" ry="11.92" transform="translate(32.11 198.79) rotate(-80.31)"/><ellipse class="b" cx="74.23" cy="49.39" rx="13.59" ry="23.51"/><ellipse class="b" cx="107.87" cy="54.05" rx="13.59" ry="23.51"/></svg>