<svg xmlns="http://www.w3.org/2000/svg" viewBox="0 0 91.58 105.87"><defs><style>.a{fill:#fef382;}.b{fill:#e53f5e;}.c{fill:#fff;}</style></defs><title>finish</title><rect class="a" x="38.03" width="8.75" height="105.87"/><path class="b" d="M590.05,309.42,579.46,326.1h-81V292.23h81Z" transform="translate(-498.47 -281.33)"/><path class="c" d="M506,300.19h9.68v1.95H508.3v6h6.8V310h-6.8v8.13H506Z" transform="translate(-498.47 -281.33)"/><path class="c" d="M521.29,300.19v18H519v-18Z" transform="translate(-498.47 -281.33)"/><path class="c" d="M525.35,318.16v-18h2.53l5.76,9.09a51,51,0,0,1,3.22,5.84l0,0c-.21-2.4-.26-4.58-.26-7.38v-7.52h2.18v18h-2.34L530.78,309a58.87,58.87,0,0,1-3.36-6l-.08,0c.14,2.27.19,4.43.19,7.41v7.68Z" transform="translate(-498.47 -281.33)"/><path class="c" d="M545.21,300.19v18H542.9v-18Z" transform="translate(-498.47 -281.33)"/><path class="c" d="M549,315.33a8.22,8.22,0,0,0,4.16,1.18c2.37,0,3.76-1.26,3.76-3.07s-1-2.64-3.39-3.57c-2.93-1-4.74-2.56-4.74-5.09,0-2.8,2.32-4.88,5.81-4.88a8.19,8.19,0,0,1,4,.88l-.64,1.89a7.18,7.18,0,0,0-3.41-.85c-2.45,0-3.39,1.46-3.39,2.69,0,1.68,1.1,2.51,3.57,3.47,3,1.17,4.59,2.63,4.59,5.27s-2,5.18-6.29,5.18a9.31,9.31,0,0,1-4.59-1.15Z" transform="translate(-498.47 -281.33)"/><path class="c" d="M564.74,300.19v7.52h8.69v-7.52h2.34v18h-2.34v-8.42h-8.69v8.42h-2.32v-18Z" transform="translate(-498.47 -281.33)"/></svg>