<svg xmlns="http://www.w3.org/2000/svg" viewBox="0 0 97.32 148.23"><defs><style>.a{fill:#603a17;}.b{fill:#3b2416;}.c{fill:#754d29;}.d{fill:#56351b;}.e{fill:none;stroke:#d8262a;stroke-miterlimit:10;}.f{fill:#d8262a;}</style></defs><title>iconsss</title><rect class="a" width="97.32" height="148.23"/><rect class="b" x="4.72" y="5.76" width="87.88" height="136.71"/><rect class="a" y="72.12" width="97.32" height="3.99"/><rect class="a" y="96.21" width="97.32" height="3.99"/><rect class="a" y="120.31" width="97.32" height="3.99"/><rect class="a" y="48.02" width="97.32" height="3.99"/><rect class="a" y="23.92" width="97.32" height="3.99"/><rect class="c" x="12.84" y="5.76" width="71.63" height="13.32"/><rect class="c" x="12.84" y="5.76" width="71.63" height="13.32"/><polygon class="d" points="92.6 23.93 4.72 23.93 12.84 19.07 84.48 19.07 92.6 23.93"/><rect class="c" x="12.84" y="52.02" width="71.63" height="14.73"/><polygon class="d" points="92.6 72.12 4.72 72.12 12.84 66.75 84.48 66.75 92.6 72.12"/><rect class="c" x="12.84" y="27.92" width="71.63" height="14.73"/><polygon class="d" points="92.6 48.02 4.72 48.02 12.84 42.65 84.48 42.65 92.6 48.02"/><rect class="c" x="12.84" y="76.11" width="71.63" height="14.73"/><polygon class="d" points="92.6 96.21 4.72 96.21 12.84 90.84 84.48 90.84 92.6 96.21"/><rect class="c" x="12.84" y="100.21" width="71.63" height="14.73"/><polygon class="d" points="92.6 120.31 4.72 120.31 12.84 114.94 84.48 114.94 92.6 120.31"/><rect class="c" x="12.84" y="124.3" width="71.63" height="13.32"/><polygon class="d" points="92.6 142.47 4.72 142.47 12.84 137.62 84.48 137.62 92.6 142.47"/><line class="e" x1="26.34" y1="77.71" x2="10.52" y2="38.22"/><path class="f" d="M136.74,343.47a30,30,0,0,1,1.24-9.7l-3.78,3.36-5,.17A30.26,30.26,0,0,1,136.74,343.47Z" transform="translate(-108.16 -260.16)"/></svg>