<svg xmlns="http://www.w3.org/2000/svg" viewBox="0 0 684 492.64"><defs><style>.a{fill:#812c7c;}.b{fill:#00a3da;}.c{fill:#009949;}.d{fill:#d8127d;}.e{fill:#d8232a;}</style></defs><title>logo</title><path class="a" d="M182.51,477a78.33,78.33,0,0,1,5.32-29.48,68.22,68.22,0,0,1,14.56-22.61,63.25,63.25,0,0,1,21.77-14.46,73.13,73.13,0,0,1,53.41,0,63.54,63.54,0,0,1,21.77,14.46,68.36,68.36,0,0,1,14.55,22.61,84.34,84.34,0,0,1,0,59,68.36,68.36,0,0,1-14.55,22.61,63.51,63.51,0,0,1-21.77,14.45,73,73,0,0,1-53.41,0,63.23,63.23,0,0,1-21.77-14.45,68.22,68.22,0,0,1-14.56-22.61A78.29,78.29,0,0,1,182.51,477Zm38,0q0,15.45,8,25t22.4,9.55q14.43,0,22.4-9.55t8-25q0-15.43-8-25t-22.4-9.55q-14.43,0-22.4,9.55T220.48,477Z" transform="translate(-138 -294)"/><path class="b" d="M343.73,294h53.11V408h.7a49.65,49.65,0,0,1,23.55-17.52,91.29,91.29,0,0,1,31-5.13q18.4,0,32.92,7.61a75.9,75.9,0,0,1,24.61,20.36,95.21,95.21,0,0,1,15.58,29.2A108.68,108.68,0,0,1,530.66,477a102.47,102.47,0,0,1-6,35.76A82.17,82.17,0,0,1,507.47,541a77.28,77.28,0,0,1-26.73,18.41,88.77,88.77,0,0,1-34.69,6.54,59.69,59.69,0,0,1-17.35-2.47,74.75,74.75,0,0,1-15.05-6.38,62.57,62.57,0,0,1-12-8.67A58.18,58.18,0,0,1,393.3,539h-.71v22.66H343.73Zm48.86,181.62q0,19.49,11.15,31.51t31.33,12q20.19,0,31.34-12t11.15-31.51q0-19.46-11.15-31.5t-31.34-12q-20.18,0-31.33,12T392.59,475.62Z" transform="translate(-138 -294)"/><path class="c" d="M204.94,734.56a88.34,88.34,0,0,1-2.41,21.57,40.73,40.73,0,0,1-8,16.34,36.58,36.58,0,0,1-14.86,10.47q-9.24,3.69-22.9,3.7-4.55,0-9.37-.38A49.55,49.55,0,0,1,138,784.6l2.14-34a24,24,0,0,0,10.45,2.3,11.94,11.94,0,0,0,8-2.55A14.79,14.79,0,0,0,162.9,744a30.38,30.38,0,0,0,1.61-8.17c.17-2.9.27-5.53.27-7.91V601.28h40.16ZM161.56,562.21a20.93,20.93,0,0,1,6.83-15.7,24.08,24.08,0,0,1,32.93,0,21.46,21.46,0,0,1,0,31.4,24,24,0,0,1-32.93,0A20.9,20.9,0,0,1,161.56,562.21Z" transform="translate(-138 -294)"/><path class="d" d="M347.22,725.21H310.6V708.38h-.51a42.47,42.47,0,0,1-5.21,7.14,34.32,34.32,0,0,1-7.76,6.38,45,45,0,0,1-10.43,4.59A43.67,43.67,0,0,1,274,728.27q-14.5,0-23.53-4.46a33.69,33.69,0,0,1-14-12.37,48.59,48.59,0,0,1-6.61-18.62,152.63,152.63,0,0,1-1.65-23.2V601.28h38.15V662c0,3.57.12,7.27.38,11.09A35,35,0,0,0,269,683.65a18.22,18.22,0,0,0,5.85,7.9c2.62,2,6.4,3.06,11.31,3.06s8.91-.89,12-2.68a18.16,18.16,0,0,0,7-7.14,29.24,29.24,0,0,0,3.18-10.07,86.82,86.82,0,0,0,.76-11.73V601.28h38.15Z" transform="translate(-138 -294)"/><path class="a" d="M372.42,602.27H409.7V618.9h.52a30.47,30.47,0,0,1,5.18-7.06,37.65,37.65,0,0,1,8-6.3A46.72,46.72,0,0,1,434,601,45.23,45.23,0,0,1,447,599.24q14.76,0,23.82,4.41a34.19,34.19,0,0,1,14.11,12.23,48.47,48.47,0,0,1,6.87,18.39,136.87,136.87,0,0,1,1.81,22.93v67.53H454.75v-60q0-5.29-.39-11A33.67,33.67,0,0,0,452,643.34a18.12,18.12,0,0,0-5.95-7.81q-4-3-11.52-3t-12.17,2.65a18.31,18.31,0,0,0-7.12,7.06,28.16,28.16,0,0,0-3.24,9.95,83.21,83.21,0,0,0-.78,11.59v61H372.42Z" transform="translate(-138 -294)"/><path class="e" d="M517.08,563.52a20.83,20.83,0,0,1,6.6-15.49,22.92,22.92,0,0,1,31.82,0,21.5,21.5,0,0,1,0,31,22.9,22.9,0,0,1-31.82,0A20.82,20.82,0,0,1,517.08,563.52Zm3.11,38.54H559V724.48h-38.8Z" transform="translate(-138 -294)"/><path class="b" d="M583.62,662.88a73.37,73.37,0,0,1,5-27.74,64.16,64.16,0,0,1,13.77-21.28A59.82,59.82,0,0,1,623,600.26a69.38,69.38,0,0,1,50.51,0,60,60,0,0,1,20.59,13.6,64.3,64.3,0,0,1,13.76,21.28,79,79,0,0,1,0,55.49,64.15,64.15,0,0,1-13.76,21.27,60,60,0,0,1-20.59,13.61,69.51,69.51,0,0,1-50.51,0,59.84,59.84,0,0,1-20.59-13.61,64,64,0,0,1-13.77-21.27A73.39,73.39,0,0,1,583.62,662.88Zm35.91,0q0,14.54,7.54,23.52t21.19,9q13.65,0,21.19-9T677,662.88q0-14.52-7.54-23.51t-21.19-9q-13.65,0-21.19,9T619.53,662.88Z" transform="translate(-138 -294)"/><path class="a" d="M735.09,602.25h38.12v19.62h.5q6.1-11.32,14.49-17t21.09-5.66c2.2,0,4.41.09,6.61.25a33.62,33.62,0,0,1,6.1,1v34.45a59.3,59.3,0,0,0-8-1.88,52.18,52.18,0,0,0-8.25-.63q-10.93,0-17.29,3a22.87,22.87,0,0,0-9.78,8.43,31.76,31.76,0,0,0-4.45,13,124.47,124.47,0,0,0-1,16.6v51.05H735.09Z" transform="translate(-138 -294)"/><path class="c" d="M675.42,451.44V452a38,38,0,0,1,15.26,17.81,60.45,60.45,0,0,1,4.63,23.43,59.67,59.67,0,0,1-2.59,17.54A44,44,0,0,1,685,525.61a37.39,37.39,0,0,1-12.81,10.17,39.62,39.62,0,0,1-17.7,3.75q-11.44,0-19.34-4.15A37.62,37.62,0,0,1,622,524.13a55.4,55.4,0,0,1-8-16.2,116.24,116.24,0,0,1-4.23-18.87,178.93,178.93,0,0,1-1.63-19.55q-.27-9.76-.27-18.07-10.89,0-17.3,7.63a27.21,27.21,0,0,0-6.4,18.07,38.85,38.85,0,0,0,4.22,18.08A49.6,49.6,0,0,0,600,509.81l-22.34,21.42A73.48,73.48,0,0,1,561.69,505a92.38,92.38,0,0,1-5.31-31.06q0-17.67,4.5-29.05a42.21,42.21,0,0,1,13.21-18.21,51.42,51.42,0,0,1,21.38-9.51,143.17,143.17,0,0,1,29.29-2.67H692v36.95Zm-41.4,9.9c0,3,.13,6.83.41,11.38a56.58,56.58,0,0,0,2.31,13.12,29,29,0,0,0,5.72,10.71q3.82,4.43,10.62,4.42a11.72,11.72,0,0,0,10.9-6.16A25.29,25.29,0,0,0,667.52,482a39.69,39.69,0,0,0-1.63-11.38,33.65,33.65,0,0,0-4.63-9.77,21.61,21.61,0,0,0-18.53-9.37H634Z" transform="translate(-138 -294)"/></svg>