<svg xmlns="http://www.w3.org/2000/svg" xmlns:xlink="http://www.w3.org/1999/xlink" viewBox="0 0 188.38 148.23"><defs><style>.a{fill:none;}.b{fill:#f1f2f2;}.c{fill:#2e3192;}.d{fill:#812c7c;}.e{clip-path:url(#a);}</style><clipPath id="a" transform="translate(-243.73 -260.16)"><circle class="a" cx="382.19" cy="310.07" r="36.34"/></clipPath></defs><title>book</title><path class="b" d="M315.12,375.55l-64.46-35.72a34,34,0,0,1-5.16-21.63,23.1,23.1,0,0,1,2.79-1.25c23-8.56,53.64,21.83,63.62,32.37,60.12-40.25,78.4-49.86,80-47.77.49.65-.81,2.26-1,6a21.4,21.4,0,0,0,3.82,12.47Z" transform="translate(-243.73 -260.16)"/><path class="c" d="M247.11,318.75s.09.05.1.06,20.31,10.61,64.81,33.68l86.73-54.55-68.81-26.78-85.46,44.7a33.25,33.25,0,0,0,5.19,26l65.46,36.23,83.62-56.76-5.5-3.78c.24.94.49,1.87.73,2.81l-79.21,52.38L252.17,339a38.61,38.61,0,0,1-3.65-8.21,36.45,36.45,0,0,1-1.35-6.19C246.89,322.12,246.77,318.79,247.11,318.75Z" transform="translate(-243.73 -260.16)"/><path class="d" d="M382.2,260.16A49.91,49.91,0,0,0,347,345.4L303.8,396.59a7.17,7.17,0,1,0,11,9.24L358.47,354a49.92,49.92,0,1,0,23.73-93.84Zm0,86.26a36.35,36.35,0,1,1,36.34-36.35A36.36,36.36,0,0,1,382.2,346.42Z" transform="translate(-243.73 -260.16)"/><g class="e"><path class="b" d="M331.31,371.55l-64.44-35.71a34.14,34.14,0,0,1-5.16-21.62A23.1,23.1,0,0,1,264.5,313c23-8.56,53.62,21.82,63.6,32.36,60.1-40.24,78.37-49.84,79.93-47.76.49.65-.8,2.26-1,6a21.33,21.33,0,0,0,3.81,12.47Z" transform="translate(-243.73 -260.16)"/><path class="c" d="M263.32,314.77c.05,0,.09.05.1.06s20.31,10.61,64.79,33.67L414.92,294l-68.8-26.77-85.43,44.69a33.24,33.24,0,0,0,5.19,26l65.44,36.22,83.6-56.74-5.51-3.78c.25.94.49,1.87.73,2.81L331,368.72,268.38,335a39.07,39.07,0,0,1-3.65-8.21,36.29,36.29,0,0,1-1.35-6.2C263.1,318.14,263,314.81,263.32,314.77Z" transform="translate(-243.73 -260.16)"/></g></svg>