<svg xmlns="http://www.w3.org/2000/svg" viewBox="0 0 177.6 177.6"><defs><style>.a{fill:#812c7c;}.b,.c{fill:#fff;}.c,.d{stroke:#812c7c;stroke-miterlimit:10;}.d{fill:none;}</style></defs><title>icons</title><rect class="a" x="-1.93" y="-1.93" width="181.46" height="181.46"/><ellipse class="b" cx="88.8" cy="106.22" rx="61.91" ry="39.78"/><path class="c" d="M120.37,74.13H54.84V22.4c-1.75,12.72,7.54,22.66,16,22.81,8.57.15,18.35-9.81,16.64-22.81-1.5,11.82,7.83,21.3,17,21,8.87-.26,17.45-9.65,15.93-21Z"/><circle class="c" cx="60.32" cy="72.32" r="23.31"/><circle class="a" cx="70.32" cy="72.32" r="5.98"/><circle class="c" cx="117.29" cy="72.32" r="23.31"/><path class="d" d="M26.89,122.12a303.59,303.59,0,0,0,62.5,6.4,303.23,303.23,0,0,0,61.32-6.4"/><circle class="a" cx="107.29" cy="72.32" r="5.98"/><circle class="a" cx="82.18" cy="103.32" r="2.14"/><circle class="a" cx="95.42" cy="103.32" r="2.14"/><circle class="c" cx="54.63" cy="30.84" r="4.96"/><circle class="c" cx="87.59" cy="25.88" r="4.96"/><circle class="c" cx="120.55" cy="30.84" r="4.96"/></svg>