<svg xmlns="http://www.w3.org/2000/svg" viewBox="0 0 177.6 177.6"><defs><style>.a{fill:#d8242a;}.b{fill:#fff;stroke:#d8242a;stroke-miterlimit:10;}</style></defs><title>icons</title><rect class="a" x="-1.93" y="-1.93" width="181.46" height="181.46"/><rect class="b" x="62.81" y="28.73" width="52.94" height="123.53" transform="translate(90.14 -36.63) rotate(45)"/><rect class="b" x="99.75" y="40.79" width="37.29" height="41.18" transform="translate(78.08 -65.74) rotate(45)"/><rect class="b" x="70.63" y="69.91" width="37.29" height="41.18" transform="translate(90.14 -36.63) rotate(45)"/><rect class="b" x="41.52" y="99.02" width="37.29" height="41.18" transform="translate(102.2 -7.51) rotate(45)"/><rect class="b" x="143.18" y="61.73" width="7.82" height="5.71" transform="translate(88.75 -85.1) rotate(45)"/><rect class="b" x="139.15" y="65.77" width="7.82" height="5.71" transform="translate(90.42 -81.06) rotate(45)"/><rect class="b" x="135.11" y="69.8" width="7.82" height="5.71" transform="translate(92.1 -77.02) rotate(45)"/><rect class="b" x="131.07" y="73.84" width="7.82" height="5.71" transform="translate(93.77 -72.99) rotate(45)"/><rect class="b" x="127.04" y="77.88" width="7.82" height="5.71" transform="translate(95.44 -68.95) rotate(45)"/><rect class="b" x="123" y="81.91" width="7.82" height="5.71" transform="translate(97.11 -64.91) rotate(45)"/><rect class="b" x="118.97" y="85.95" width="7.82" height="5.71" transform="translate(98.78 -60.88) rotate(45)"/><rect class="b" x="114.93" y="89.99" width="7.82" height="5.71" transform="translate(100.46 -56.84) rotate(45)"/><rect class="b" x="110.89" y="94.02" width="7.82" height="5.71" transform="translate(102.13 -52.8) rotate(45)"/><rect class="b" x="106.86" y="98.06" width="7.82" height="5.71" transform="translate(103.8 -48.77) rotate(45)"/><rect class="b" x="102.82" y="102.1" width="7.82" height="5.71" transform="translate(105.47 -44.73) rotate(45)"/><rect class="b" x="98.78" y="106.13" width="7.82" height="5.71" transform="translate(107.14 -40.69) rotate(45)"/><rect class="b" x="94.75" y="110.17" width="7.82" height="5.71" transform="translate(108.82 -36.66) rotate(45)"/><rect class="b" x="90.71" y="114.21" width="7.82" height="5.71" transform="translate(110.49 -32.62) rotate(45)"/><rect class="b" x="86.67" y="118.24" width="7.82" height="5.71" transform="translate(112.16 -28.58) rotate(45)"/><rect class="b" x="82.64" y="122.28" width="7.82" height="5.71" transform="translate(113.83 -24.55) rotate(45)"/><rect class="b" x="78.68" y="126.23" width="7.82" height="5.71" transform="translate(115.47 -20.59) rotate(45)"/><rect class="b" x="74.65" y="130.27" width="7.82" height="5.71" transform="translate(117.14 -16.56) rotate(45)"/><rect class="b" x="70.61" y="134.31" width="7.82" height="5.71" transform="translate(118.81 -12.52) rotate(45)"/><rect class="b" x="66.57" y="138.34" width="7.82" height="5.71" transform="translate(120.48 -8.48) rotate(45)"/><rect class="b" x="62.54" y="142.38" width="7.82" height="5.71" transform="translate(122.16 -4.45) rotate(45)"/><rect class="b" x="58.5" y="146.41" width="7.82" height="5.71" transform="translate(123.83 -0.41) rotate(45)"/><rect class="b" x="111.28" y="29.83" width="7.82" height="5.71" transform="translate(56.85 -71.88) rotate(45)"/><rect class="b" x="107.25" y="33.86" width="7.82" height="5.71" transform="translate(58.52 -67.84) rotate(45)"/><rect class="b" x="103.21" y="37.9" width="7.82" height="5.71" transform="translate(60.19 -63.81) rotate(45)"/><rect class="b" x="99.17" y="41.94" width="7.82" height="5.71" transform="translate(61.87 -59.77) rotate(45)"/><rect class="b" x="95.14" y="45.97" width="7.82" height="5.71" transform="translate(63.54 -55.74) rotate(45)"/><rect class="b" x="91.1" y="50.01" width="7.82" height="5.71" transform="translate(65.21 -51.7) rotate(45)"/><rect class="b" x="87.06" y="54.05" width="7.82" height="5.71" transform="translate(66.88 -47.66) rotate(45)"/><rect class="b" x="83.03" y="58.08" width="7.82" height="5.71" transform="translate(68.55 -43.63) rotate(45)"/><rect class="b" x="78.99" y="62.12" width="7.82" height="5.71" transform="translate(70.22 -39.59) rotate(45)"/><rect class="b" x="74.95" y="66.16" width="7.82" height="5.71" transform="translate(71.9 -35.55) rotate(45)"/><rect class="b" x="70.92" y="70.19" width="7.82" height="5.71" transform="translate(73.57 -31.52) rotate(45)"/><rect class="b" x="66.88" y="74.23" width="7.82" height="5.71" transform="translate(75.24 -27.48) rotate(45)"/><rect class="b" x="62.84" y="78.27" width="7.82" height="5.71" transform="translate(76.91 -23.44) rotate(45)"/><rect class="b" x="58.81" y="82.3" width="7.82" height="5.71" transform="translate(78.58 -19.41) rotate(45)"/><rect class="b" x="54.77" y="86.34" width="7.82" height="5.71" transform="translate(80.26 -15.37) rotate(45)"/><rect class="b" x="50.73" y="90.38" width="7.82" height="5.71" transform="translate(81.93 -11.33) rotate(45)"/><rect class="b" x="46.78" y="94.33" width="7.82" height="5.71" transform="translate(83.57 -7.38) rotate(45)"/><rect class="b" x="42.74" y="98.37" width="7.82" height="5.71" transform="translate(85.24 -3.34) rotate(45)"/><rect class="b" x="38.71" y="102.4" width="7.82" height="5.71" transform="translate(86.91 0.69) rotate(45)"/><rect class="b" x="34.67" y="106.44" width="7.82" height="5.71" transform="translate(88.58 4.73) rotate(45)"/><rect class="b" x="30.63" y="110.48" width="7.82" height="5.71" transform="translate(90.25 8.77) rotate(45)"/><rect class="b" x="26.6" y="114.51" width="7.82" height="5.71" transform="translate(91.93 12.8) rotate(45)"/></svg>