<svg xmlns="http://www.w3.org/2000/svg" viewBox="0 0 177.6 177.6"><defs><style>.a{fill:#009949;}.b{fill:#fff;}</style></defs><title>icons</title><rect class="a" x="-2.35" y="-3.9" width="186.3" height="197.22"/><path class="b" d="M35.2,143.58A102.85,102.85,0,0,0,43.81,114c1.76-13.68-.27-20.81,1-48.87.42-9.32.93-14.86,4-21.27A42.36,42.36,0,0,1,65.08,26.35a43.63,43.63,0,0,1,24.56-6.08A45.16,45.16,0,0,1,116,30.65c2.72,2.22,10.5,8.71,14.18,19.75,2.21,6.64,1.52,10.64,1.27,23-.3,14.33.26,26.78.76,32.67a117.63,117.63,0,0,0,9.62,37.22,3,3,0,0,1,.5,2.53c-.77,2.31-5.61,2.29-6.07,2.28-6.79-.1-11.52-8.29-12.41-9.88-.16.72-1.66,7.09-6.84,9.12-5.59,2.19-13.64-1.41-17-9.62-.13,6.59-4.17,11.92-8.86,12.91-6.08,1.29-14.11-4.52-14.44-13.92-.14,8-5.94,13.69-10.88,13.67-5.49,0-11.92-7.06-10.39-16.21-.69,1-9.09,13.45-14.94,13.93a5.08,5.08,0,0,1-3.94-.94A4.84,4.84,0,0,1,35.2,143.58Z"/><circle class="a" cx="70.36" cy="60.11" r="7.38"/><circle class="a" cx="107.24" cy="60.11" r="7.38"/></svg>