<svg xmlns="http://www.w3.org/2000/svg" viewBox="0 0 177.6 177.6"><defs><style>.a{fill:#d8117d;}.b{fill:#fff;}.c{fill:none;stroke:#d8117d;stroke-miterlimit:10;}</style></defs><title>icons</title><rect class="a" x="-1.9" y="-1.9" width="181.41" height="181.41"/><rect class="b" x="18.17" y="36.72" width="34.89" height="104.48" rx="5.67"/><rect class="b" x="56.17" y="36.72" width="34.89" height="104.48" rx="5.67"/><rect class="b" x="105.39" y="34.04" width="34.89" height="104.48" rx="5.67" transform="translate(-17.29 32.44) rotate(-14.07)"/><line class="c" x1="18.17" y1="52.55" x2="53.06" y2="52.55"/><line class="c" x1="18.17" y1="57.07" x2="53.06" y2="57.07"/><line class="c" x1="18.17" y1="123.93" x2="53.06" y2="123.93"/><line class="c" x1="18.17" y1="128.44" x2="53.06" y2="128.44"/><line class="c" x1="56.17" y1="52.55" x2="91.06" y2="52.55"/><line class="c" x1="56.17" y1="57.07" x2="91.06" y2="57.07"/><line class="c" x1="56.17" y1="123.93" x2="91.06" y2="123.93"/><line class="c" x1="56.17" y1="128.44" x2="91.06" y2="128.44"/><line class="c" x1="94.71" y1="56.84" x2="133.77" y2="46.53"/><line class="c" x1="95.86" y1="61.2" x2="134.92" y2="50.9"/><line class="c" x1="112.91" y1="125.85" x2="151.97" y2="115.55"/><line class="c" x1="114.06" y1="130.21" x2="153.12" y2="119.91"/></svg>